<svg xmlns="http://www.w3.org/2000/svg" xmlns:xlink="http://www.w3.org/1999/xlink" width="672" zoomAndPan="magnify" viewBox="0 0 504 219" height="292" preserveAspectRatio="xMidYMid meet" version="1.0"><defs><g/></defs><g fill="#ebeff1" fill-opacity="1"><g transform="translate(154.411235, 128.428935)"><g><path d="M 18.71875 0.984375 C 14.9375 0.984375 11.753906 0.179688 9.171875 -1.421875 C 6.585938 -3.023438 4.628906 -5.382812 3.296875 -8.5 C 1.960938 -11.613281 1.296875 -15.453125 1.296875 -20.015625 C 1.296875 -23.398438 1.769531 -26.390625 2.71875 -28.984375 C 3.664062 -31.585938 4.984375 -33.765625 6.671875 -35.515625 C 8.359375 -37.273438 10.320312 -38.601562 12.5625 -39.5 C 14.800781 -40.40625 17.21875 -40.859375 19.8125 -40.859375 C 22.71875 -40.859375 25.164062 -40.40625 27.15625 -39.5 C 29.15625 -38.601562 30.929688 -37.414062 32.484375 -35.9375 L 27.546875 -30.8125 C 26.335938 -31.894531 25.175781 -32.691406 24.0625 -33.203125 C 22.945312 -33.722656 21.679688 -33.984375 20.265625 -33.984375 C 18.921875 -33.984375 17.6875 -33.71875 16.5625 -33.1875 C 15.445312 -32.664062 14.472656 -31.84375 13.640625 -30.71875 C 12.804688 -29.59375 12.160156 -28.144531 11.703125 -26.375 C 11.242188 -24.601562 11.015625 -22.460938 11.015625 -19.953125 C 11.015625 -16.484375 11.296875 -13.722656 11.859375 -11.671875 C 12.421875 -9.617188 13.273438 -8.144531 14.421875 -7.25 C 15.578125 -6.363281 17.035156 -5.921875 18.796875 -5.921875 C 19.742188 -5.921875 20.628906 -6.03125 21.453125 -6.25 C 22.273438 -6.46875 23.039062 -6.757812 23.75 -7.125 L 23.75 -16.25 L 18.75 -16.25 L 17.828125 -22.859375 L 32.65625 -22.859375 L 32.65625 -3.046875 C 30.664062 -1.816406 28.523438 -0.835938 26.234375 -0.109375 C 23.941406 0.617188 21.4375 0.984375 18.71875 0.984375 Z M 18.71875 0.984375 "/></g></g></g><g fill="#ebeff1" fill-opacity="1"><g transform="translate(186.546086, 128.428935)"><g><path d="M 14.78125 -33.125 L 14.78125 -23.546875 L 28.578125 -23.546875 L 28.578125 -16.9375 L 14.78125 -16.9375 L 14.78125 -6.75 L 31.421875 -6.75 L 31.421875 0 L 5.34375 0 L 5.34375 -39.84375 L 31.390625 -39.84375 L 30.453125 -33.125 Z M 14.78125 -33.125 "/></g></g></g><g fill="#ebeff1" fill-opacity="1"><g transform="translate(218.680937, 128.428935)"><g><path d="M 20.0625 0 L 9.578125 -32.0625 C 9.710938 -31.195312 9.859375 -30.15625 10.015625 -28.9375 C 10.179688 -27.71875 10.335938 -26.363281 10.484375 -24.875 C 10.640625 -23.394531 10.765625 -21.820312 10.859375 -20.15625 C 10.960938 -18.488281 11.015625 -16.78125 11.015625 -15.03125 L 11.015625 0 L 2.984375 0 L 2.984375 -39.84375 L 14.75 -39.84375 L 24.921875 -7.96875 C 24.710938 -9.175781 24.5 -10.617188 24.28125 -12.296875 C 24.0625 -13.972656 23.875 -15.84375 23.71875 -17.90625 C 23.5625 -19.976562 23.484375 -22.203125 23.484375 -24.578125 L 23.484375 -39.84375 L 31.515625 -39.84375 L 31.515625 0 Z M 20.0625 0 "/></g></g></g><g fill="#ebeff1" fill-opacity="1"><g transform="translate(250.815784, 128.428935)"><g><path d="M 10.84375 -5.4375 C 10.84375 -6.601562 11.128906 -7.671875 11.703125 -8.640625 C 12.273438 -9.609375 13.050781 -10.382812 14.03125 -10.96875 C 15.007812 -11.550781 16.082031 -11.84375 17.25 -11.84375 C 18.4375 -11.84375 19.515625 -11.550781 20.484375 -10.96875 C 21.453125 -10.382812 22.222656 -9.609375 22.796875 -8.640625 C 23.367188 -7.671875 23.65625 -6.601562 23.65625 -5.4375 C 23.65625 -4.28125 23.367188 -3.210938 22.796875 -2.234375 C 22.222656 -1.265625 21.453125 -0.488281 20.484375 0.09375 C 19.515625 0.6875 18.4375 0.984375 17.25 0.984375 C 16.082031 0.984375 15.007812 0.6875 14.03125 0.09375 C 13.050781 -0.488281 12.273438 -1.265625 11.703125 -2.234375 C 11.128906 -3.210938 10.84375 -4.28125 10.84375 -5.4375 Z M 10.84375 -5.4375 "/></g></g></g><g fill="#ebeff1" fill-opacity="1"><g transform="translate(282.950637, 128.428935)"><g><path d="M 23 -8.59375 L 11.328125 -8.59375 L 9.234375 0 L -0.625 0 L 11.5625 -39.84375 L 23 -39.84375 L 35.1875 0 L 25.09375 0 Z M 12.828125 -15.4375 L 21.453125 -15.4375 L 17.140625 -33.0625 Z M 12.828125 -15.4375 "/></g></g></g><g fill="#ebeff1" fill-opacity="1"><g transform="translate(315.085491, 128.428935)"><g><path d="M 30.1875 -39.84375 L 30.1875 -32.953125 L 21.96875 -32.953125 L 21.96875 -6.921875 L 30.1875 -6.921875 L 30.1875 0 L 4.3125 0 L 4.3125 -6.921875 L 12.53125 -6.921875 L 12.53125 -32.953125 L 4.3125 -32.953125 L 4.3125 -39.84375 Z M 30.1875 -39.84375 "/></g></g></g><g fill="#ebeff1" fill-opacity="1"><g transform="translate(154.411235, 128.428935)"><g><path d="M 18.71875 0.984375 C 14.9375 0.984375 11.753906 0.179688 9.171875 -1.421875 C 6.585938 -3.023438 4.628906 -5.382812 3.296875 -8.5 C 1.960938 -11.613281 1.296875 -15.453125 1.296875 -20.015625 C 1.296875 -23.398438 1.769531 -26.390625 2.71875 -28.984375 C 3.664062 -31.585938 4.984375 -33.765625 6.671875 -35.515625 C 8.359375 -37.273438 10.320312 -38.601562 12.5625 -39.5 C 14.800781 -40.40625 17.21875 -40.859375 19.8125 -40.859375 C 22.71875 -40.859375 25.164062 -40.40625 27.15625 -39.5 C 29.15625 -38.601562 30.929688 -37.414062 32.484375 -35.9375 L 27.546875 -30.8125 C 26.335938 -31.894531 25.175781 -32.691406 24.0625 -33.203125 C 22.945312 -33.722656 21.679688 -33.984375 20.265625 -33.984375 C 18.921875 -33.984375 17.6875 -33.71875 16.5625 -33.1875 C 15.445312 -32.664062 14.472656 -31.84375 13.640625 -30.71875 C 12.804688 -29.59375 12.160156 -28.144531 11.703125 -26.375 C 11.242188 -24.601562 11.015625 -22.460938 11.015625 -19.953125 C 11.015625 -16.484375 11.296875 -13.722656 11.859375 -11.671875 C 12.421875 -9.617188 13.273438 -8.144531 14.421875 -7.25 C 15.578125 -6.363281 17.035156 -5.921875 18.796875 -5.921875 C 19.742188 -5.921875 20.628906 -6.03125 21.453125 -6.25 C 22.273438 -6.46875 23.039062 -6.757812 23.75 -7.125 L 23.75 -16.25 L 18.75 -16.25 L 17.828125 -22.859375 L 32.65625 -22.859375 L 32.65625 -3.046875 C 30.664062 -1.816406 28.523438 -0.835938 26.234375 -0.109375 C 23.941406 0.617188 21.4375 0.984375 18.71875 0.984375 Z M 18.71875 0.984375 "/></g></g></g><g fill="#ebeff1" fill-opacity="1"><g transform="translate(186.546086, 128.428935)"><g><path d="M 14.78125 -33.125 L 14.78125 -23.546875 L 28.578125 -23.546875 L 28.578125 -16.9375 L 14.78125 -16.9375 L 14.78125 -6.75 L 31.421875 -6.75 L 31.421875 0 L 5.34375 0 L 5.34375 -39.84375 L 31.390625 -39.84375 L 30.453125 -33.125 Z M 14.78125 -33.125 "/></g></g></g><g fill="#ebeff1" fill-opacity="1"><g transform="translate(218.680937, 128.428935)"><g><path d="M 20.0625 0 L 9.578125 -32.0625 C 9.710938 -31.195312 9.859375 -30.15625 10.015625 -28.9375 C 10.179688 -27.71875 10.335938 -26.363281 10.484375 -24.875 C 10.640625 -23.394531 10.765625 -21.820312 10.859375 -20.15625 C 10.960938 -18.488281 11.015625 -16.78125 11.015625 -15.03125 L 11.015625 0 L 2.984375 0 L 2.984375 -39.84375 L 14.75 -39.84375 L 24.921875 -7.96875 C 24.710938 -9.175781 24.5 -10.617188 24.28125 -12.296875 C 24.0625 -13.972656 23.875 -15.84375 23.71875 -17.90625 C 23.5625 -19.976562 23.484375 -22.203125 23.484375 -24.578125 L 23.484375 -39.84375 L 31.515625 -39.84375 L 31.515625 0 Z M 20.0625 0 "/></g></g></g><g fill="#ebeff1" fill-opacity="1"><g transform="translate(250.815784, 128.428935)"><g><path d="M 10.84375 -5.4375 C 10.84375 -6.601562 11.128906 -7.671875 11.703125 -8.640625 C 12.273438 -9.609375 13.050781 -10.382812 14.03125 -10.96875 C 15.007812 -11.550781 16.082031 -11.84375 17.25 -11.84375 C 18.4375 -11.84375 19.515625 -11.550781 20.484375 -10.96875 C 21.453125 -10.382812 22.222656 -9.609375 22.796875 -8.640625 C 23.367188 -7.671875 23.65625 -6.601562 23.65625 -5.4375 C 23.65625 -4.28125 23.367188 -3.210938 22.796875 -2.234375 C 22.222656 -1.265625 21.453125 -0.488281 20.484375 0.09375 C 19.515625 0.6875 18.4375 0.984375 17.25 0.984375 C 16.082031 0.984375 15.007812 0.6875 14.03125 0.09375 C 13.050781 -0.488281 12.273438 -1.265625 11.703125 -2.234375 C 11.128906 -3.210938 10.84375 -4.28125 10.84375 -5.4375 Z M 10.84375 -5.4375 "/></g></g></g><g fill="#ebeff1" fill-opacity="1"><g transform="translate(282.950637, 128.428935)"><g><path d="M 23 -8.59375 L 11.328125 -8.59375 L 9.234375 0 L -0.625 0 L 11.5625 -39.84375 L 23 -39.84375 L 35.1875 0 L 25.09375 0 Z M 12.828125 -15.4375 L 21.453125 -15.4375 L 17.140625 -33.0625 Z M 12.828125 -15.4375 "/></g></g></g><g fill="#ebeff1" fill-opacity="1"><g transform="translate(315.085491, 128.428935)"><g><path d="M 30.1875 -39.84375 L 30.1875 -32.953125 L 21.96875 -32.953125 L 21.96875 -6.921875 L 30.1875 -6.921875 L 30.1875 0 L 4.3125 0 L 4.3125 -6.921875 L 12.53125 -6.921875 L 12.53125 -32.953125 L 4.3125 -32.953125 L 4.3125 -39.84375 Z M 30.1875 -39.84375 "/></g></g></g></svg>